<svg style="background:#0A0E14" viewBox="0 0 100 100" fill="none" xmlns="http://www.w3.org/2000/svg"><path d="M41.5,11.2L61.8,6.5 M77.1,64.5L93.2,50.0 M61.8,6.5L84.0,23.1 M66.9,85.2L77.1,64.5 M79.3,39.5L58.0,46.6 M41.5,11.2L19.0,21.0 M35.1,6.5L19.0,21.0 M41.5,11.2L35.8,30.0 M78.6,14.8L61.8,6.5 M5.8,39.5L14.8,46.6 M79.3,39.5L93.2,50.0 M84.0,23.1L93.2,50.0 M50.7,73.5L58.0,46.6 M21.4,85.2L43.1,91.4 M35.8,30.0L58.0,46.6 M78.6,14.8L84.0,23.1 M34.3,54.8L14.8,46.6 M34.3,54.8L50.7,73.5 M19.0,21.0L14.1,23.1 M19.0,21.0L14.8,46.6 M5.8,39.5L7.2,64.5 M85.9,76.9L93.2,50.0 M62.2,21.0L58.0,46.6 M5.8,39.5L19.0,21.0 M43.1,91.4L50.7,73.5 M84.0,23.1L62.2,21.0 M79.3,39.5L62.2,21.0 M79.3,39.5L77.1,64.5 M85.9,76.9L64.9,93.5 M61.8,6.5L35.1,6.5 M94.2,60.5L85.9,76.9 M21.4,85.2L7.2,64.5 M94.2,60.5L93.2,50.0 M7.2,64.5L14.8,46.6 M50.7,73.5L77.1,64.5 M14.8,46.6L24.0,73.5 M92.8,35.5L84.0,23.1 M64.9,93.5L43.1,91.4 M35.8,30.0L14.8,46.6 M21.4,85.2L24.0,73.5 M41.5,11.2L35.1,6.5 M34.3,54.8L35.8,30.0 M34.3,54.8L24.0,73.5 M66.9,85.2L85.9,76.9 M61.8,6.5L62.2,21.0 M19.0,21.0L35.8,30.0 M35.8,30.0L62.2,21.0 M85.9,76.9L77.1,64.5 M38.2,93.5L43.1,91.4 M34.3,54.8L58.0,46.6 M43.1,91.4L24.0,73.5 M66.9,85.2L64.9,93.5 M79.3,39.5L84.0,23.1 M41.5,11.2L62.2,21.0 M66.9,85.2L43.1,91.4 M24.0,73.5L50.7,73.5 M7.2,64.5L24.0,73.5 M58.0,46.6L77.1,64.5 M92.8,35.5L93.2,50.0 M66.9,85.2L50.7,73.5" stroke="#4C8AE0" stroke-width="1.1" opacity=".28"/><path d="M33.1,14.8L49.3,26.5 M78.6,14.8L76.0,26.5 M76.0,26.5L92.8,35.5 M37.8,79.0L38.2,93.5 M49.3,26.5L76.0,26.5 M33.1,14.8L56.9,8.6 M5.8,39.5L14.1,23.1 M76.0,26.5L56.9,8.6 M22.9,35.5L14.1,23.1 M65.7,45.2L49.3,26.5 M58.5,88.8L64.2,70.0 M58.5,88.8L64.9,93.5 M56.9,8.6L61.8,6.5 M21.4,85.2L16.0,76.9 M22.9,35.5L42.0,53.4 M85.2,53.4L92.8,35.5 M65.7,45.2L64.2,70.0 M42.0,53.4L49.3,26.5 M85.2,53.4L64.2,70.0 M6.8,50.0L16.0,76.9 M78.6,14.8L92.8,35.5 M37.8,79.0L64.2,70.0 M64.2,70.0L81.0,79.0 M14.1,23.1L6.8,50.0 M78.6,14.8L56.9,8.6 M33.1,14.8L35.1,6.5 M16.0,76.9L38.2,93.5 M20.7,60.5L16.0,76.9 M7.2,64.5L16.0,76.9 M49.3,26.5L56.9,8.6 M65.7,45.2L42.0,53.4 M58.5,88.8L37.8,79.0 M58.5,88.8L81.0,79.0 M5.8,39.5L6.8,50.0 M94.2,60.5L92.8,35.5 M33.1,14.8L14.1,23.1 M21.4,85.2L38.2,93.5 M22.9,35.5L6.8,50.0 M58.5,88.8L38.2,93.5 M20.7,60.5L42.0,53.4 M42.0,53.4L64.2,70.0 M76.0,26.5L85.2,53.4 M22.9,35.5L49.3,26.5 M6.8,50.0L7.2,64.5 M20.7,60.5L37.8,79.0 M37.8,79.0L16.0,76.9 M35.1,6.5L14.1,23.1 M65.7,45.2L85.2,53.4 M85.9,76.9L81.0,79.0 M65.7,45.2L76.0,26.5 M94.2,60.5L85.2,53.4 M56.9,8.6L35.1,6.5 M81.0,79.0L64.9,93.5 M64.9,93.5L38.2,93.5 M85.2,53.4L81.0,79.0 M33.1,14.8L22.9,35.5 M20.7,60.5L22.9,35.5 M20.7,60.5L6.8,50.0 M94.2,60.5L81.0,79.0 M42.0,53.4L37.8,79.0" stroke="#4C8AE0" stroke-width="1.6" stroke-linecap="round"/></svg>